<?xml version="1.0" encoding="UTF-8"?>
<!DOCTYPE svg PUBLIC "-//W3C//DTD SVG 1.1//EN" "http://www.w3.org/Graphics/SVG/1.1/DTD/svg11.dtd">
<!-- Creator: CorelDRAW 2020 (64 Bit) -->
<svg xmlns="http://www.w3.org/2000/svg" xml:space="preserve" width="297mm" height="130mm" version="1.1" style="shape-rendering:geometricPrecision; text-rendering:geometricPrecision; image-rendering:optimizeQuality; fill-rule:evenodd; clip-rule:evenodd"
viewBox="0 0 29700 13000"
 xmlns:xlink="http://www.w3.org/1999/xlink"
 xmlns:xodm="http://www.corel.com/coreldraw/odm/2003">
 <defs>
  <style type="text/css">
   <![CDATA[
    .str3 {stroke:#0BB1D3;stroke-width:179.49;stroke-miterlimit:22.9256}
    .str2 {stroke:#0BB1D3;stroke-width:359;stroke-miterlimit:22.9256}
    .str0 {stroke:#0BB1D3;stroke-width:478.65;stroke-miterlimit:22.9256}
    .str1 {stroke:#0BB1D3;stroke-width:478.66;stroke-miterlimit:22.9256}
    .fil0 {fill:none}
    .fil4 {fill:none;fill-rule:nonzero}
    .fil1 {fill:#0BB1D3}
    .fil2 {fill:#075273;fill-rule:nonzero}
    .fil3 {fill:#0BB1D3;fill-rule:nonzero}
   ]]>
  </style>
 </defs>
 <g id="Camada_x0020_1">
  <metadata id="CorelCorpID_0Corel-Layer"/>
  <g id="_2422848539824">
   <circle class="fil0 str0" cx="13567.99" cy="2697.2" r="897.49"/>
   <circle class="fil0 str1" transform="matrix(1.17394 0.358574 -0.358574 1.17394 18951.8 11360.3)" r="529.17"/>
   <circle class="fil0 str2" cx="25085.66" cy="2615.41" r="480.43"/>
   <polygon class="fil1" points="14192.56,3110.1 16406.02,5068.25 16406.02,5397.08 14030.49,3302.14 "/>
   <polygon class="fil1" points="24747.29,2896.52 22495.27,5597.14 22688.26,5758.08 24940.28,3057.46 "/>
   <polygon class="fil1" points="20857.01,8384.62 19168.31,10774.33 19373.53,10919.35 21062.23,8529.64 "/>
   <path class="fil2" d="M2360.02 4864.17c136.43,0 296.73,19.91 482.92,58.75 185.21,38.82 346.52,103.54 482.93,193.16 135.41,90.62 204.12,206.12 204.12,345.51 0,122.48 -36.84,227.04 -111.53,313.65 -73.68,86.63 -169.27,130.44 -288.75,130.44 -53.77,0 -112.52,-10.95 -176.24,-30.86 -62.73,-20.92 -128.45,-43.81 -195.16,-68.71 -67.7,-24.9 -134.42,-44.81 -201.13,-59.73 -67.71,-14.95 -141.4,-21.92 -221.06,-21.92 -134.41,0 -248.93,34.86 -345.5,104.55 -96.59,70.7 -144.38,164.29 -144.38,282.79 0,128.44 108.53,231 325.6,307.66 216.06,76.68 458.02,159.33 722.88,246.94 265.86,87.62 489.88,223.05 673.11,406.25 182.2,184.21 273.8,451.06 273.8,800.56 0,271.82 -68.69,513.78 -207.1,725.87 -138.39,212.09 -323.6,375.38 -556.6,489.88 -233.99,114.52 -488.9,172.27 -764.71,172.27 -340.53,0 -667.11,-49.78 -980.78,-150.36 -314.63,-99.57 -471.95,-273.82 -471.95,-520.75 0,-120.48 36.84,-221.06 109.53,-301.7 73.68,-80.65 170.26,-120.49 290.73,-120.49 57.77,0 122.49,8.97 192.18,28.88 70.69,18.92 159.32,47.8 268.84,85.64 108.54,37.84 204.13,67.7 285.78,87.61 81.65,20.92 167.28,30.87 256.88,30.87 128.46,0 237.99,-21.91 329.59,-65.72 91.6,-43.81 160.31,-104.54 208.1,-182.2 47.79,-77.68 71.69,-166.3 71.69,-264.87 0,-152.34 -52.78,-250.91 -159.31,-297.72 -105.54,-46.8 -349.5,-130.43 -730.85,-250.91 -380.37,-120.49 -660.16,-259.89 -838.4,-417.21 -178.22,-157.32 -266.85,-391.31 -266.85,-701.97 0,-272.82 67.72,-510.81 203.13,-715.93 134.43,-205.1 315.65,-363.42 543.67,-473.95 227.01,-110.52 471.95,-166.28 734.82,-166.28zm2185.19 3897.2l0 -3397.35c0,-144.38 42.83,-256.9 127.46,-339.54 84.63,-82.65 192.18,-124.46 322.6,-124.46 131.44,0 238.97,40.83 321.62,121.47 82.65,80.65 124.47,195.16 124.47,342.53l0 1268.53 1875.91 0 0 -1268.53c0,-143.38 41.83,-256.9 126.46,-339.54 84.63,-82.65 192.17,-124.46 321.62,-124.46 133.42,0 241.95,40.83 324.6,121.47 82.65,80.65 123.47,195.16 123.47,342.53l0 3397.35c0,147.37 -40.82,261.89 -123.47,342.53 -82.65,80.65 -191.18,121.47 -324.6,121.47 -129.45,0 -236.99,-41.81 -321.62,-124.45 -84.63,-82.65 -126.46,-195.17 -126.46,-339.55l0 -1304.36 -1875.91 0 0 1304.36c0,147.37 -41.82,261.89 -124.47,342.53 -82.65,80.65 -190.18,121.47 -321.62,121.47 -130.42,0 -237.97,-41.81 -322.6,-124.45 -84.63,-82.65 -127.46,-195.17 -127.46,-339.55zm4311.06 -151.34l1201.8 -3249.99c56.77,-149.36 140.4,-269.84 252.91,-360.46 111.53,-90.6 239.97,-135.41 386.34,-135.41 153.34,0 284.78,44.81 395.29,134.43 109.53,89.6 191.18,210.08 242.96,361.44l1172.96 3249.99c30.87,85.64 46.79,159.31 46.79,221.05 0,76.68 -18.91,144.38 -56.75,205.12 -37.84,59.73 -88.62,106.54 -150.35,139.39 -62.74,32.85 -130.44,49.78 -204.14,49.78 -222.04,0 -367.41,-103.54 -438.1,-309.66l-177.23 -562.57 -1659.85 0 -181.22 557.6c-65.73,210.09 -209.11,314.63 -429.15,314.63 -122.47,0 -227.03,-40.82 -313.65,-121.47 -86.63,-80.64 -129.46,-179.22 -129.46,-295.72 0,-56.76 13.95,-122.47 40.85,-198.15zm1835.08 -2812.88l-565.56 1731.55 1134.1 0 -556.6 -1731.55 -11.94 0zm2463.99 2964.22l0 -3358.53c0,-146.36 39.84,-259.88 118.5,-342.51 78.65,-82.65 193.16,-124.47 342.52,-124.47l1050.47 0c475.95,0 843.36,110.53 1101.26,331.57 257.88,220.05 386.34,560.59 386.34,1019.61 0,161.3 -27.88,307.67 -84.63,437.11 -56.77,130.44 -135.43,242.96 -237.99,337.55 -102.56,94.6 -219.06,170.26 -350.48,228.03 -131.45,56.75 -275.81,99.55 -434.14,126.44l1019.61 1085.34c77.67,85.61 116.5,174.25 116.5,265.85 0,120.47 -42.81,227.01 -129.44,319.62 -86.62,92.6 -192.18,138.39 -317.64,138.39 -143.38,0 -259.88,-51.76 -347.5,-154.32l-1325.29 -1608.07 -11.94 0 0 1298.39c0,147.37 -41.82,261.89 -124.47,342.53 -82.65,80.65 -190.18,121.47 -321.62,121.47 -130.42,0 -237.97,-41.81 -322.6,-124.45 -84.63,-82.65 -127.46,-195.17 -127.46,-339.55zm896.15 -3001.05l0 1057.44 614.35 0c165.28,0 299.71,-47.8 402.27,-142.4 102.56,-95.59 154.34,-225.03 154.34,-387.32 0,-169.27 -50.78,-299.71 -153.34,-390.33 -101.58,-91.6 -235.99,-137.39 -403.27,-137.39l-614.35 0zm2746.77 2980.16l0 -3284.86c0,-156.32 39.84,-281.79 119.48,-376.38 79.67,-95.59 195.17,-143.38 347.5,-143.38l1481.62 0c136.41,0 240.97,40.82 313.66,121.47 72.68,80.66 109.52,177.25 109.52,290.75 0,73.69 -16.93,141.4 -49.78,203.13 -32.85,61.74 -80.65,111.52 -144.38,150.36 -62.72,38.82 -139.4,58.75 -229.02,58.75l-1052.45 0 0 872.23 979.78 0c140.39,0 247.92,39.82 323.6,119.49 75.68,79.66 113.51,177.23 113.51,293.73 0,109.53 -38.84,205.12 -116.5,287.77 -77.66,82.63 -184.2,123.47 -320.61,123.47l-979.78 0 0 908.08 1105.23 0c138.4,0 243.96,39.83 316.63,120.47 72.69,80.67 109.53,178.24 109.53,292.74 0,64.74 -16.92,129.46 -49.78,195.16 -32.86,66.72 -81.64,118.5 -146.36,157.32 -63.74,38.84 -140.4,58.75 -230.02,58.75l-1540.37 0c-132.42,0 -241.95,-41.82 -329.57,-124.47 -87.63,-82.63 -131.44,-190.17 -131.44,-324.58z"/>
   <path class="fil3" d="M21281.56 8320.29l-11.96 0 -1075.37 -3049.87c-31.85,-89.62 -67.7,-168.28 -107.52,-234.99 -39.84,-66.72 -111.53,-99.57 -215.08,-99.57 -71.69,0 -128.45,21.91 -170.26,64.72 -41.83,42.83 -62.74,91.6 -62.74,146.37 0,62.73 11.94,129.44 35.84,200.15l1296.43 3560.66c31.85,85.61 67.7,154.32 107.53,205.1 39.84,50.79 105.54,76.67 197.14,76.67 91.62,0 157.33,-25.88 197.17,-76.67 39.82,-50.78 75.67,-119.49 107.52,-205.1l1296.41 -3560.66c23.9,-70.71 35.86,-137.42 35.86,-200.15 0,-54.77 -20.91,-103.54 -62.74,-146.37 -41.81,-42.81 -98.57,-64.72 -170.26,-64.72 -103.54,0 -175.24,32.85 -215.08,99.57 -39.82,66.71 -75.67,145.37 -107.52,234.99l-1075.37 3049.87zm2825.8 -1012.65l1153.05 0c75.68,0 137.39,-19.91 185.19,-59.74 47.79,-39.84 71.69,-101.55 71.69,-185.2 0,-83.63 -23.9,-145.37 -71.69,-185.21 -47.8,-39.82 -109.51,-59.73 -185.19,-59.73l-1153.05 0 0 -1392 1266.55 0c75.67,0 137.41,-19.93 185.2,-59.75 47.8,-39.83 71.69,-101.56 71.69,-185.21 0,-83.63 -23.89,-145.37 -71.69,-185.19 -47.79,-39.84 -109.53,-59.75 -185.2,-59.75l-1511.49 0c-99.57,0 -171.26,27.88 -215.07,83.65 -43.81,55.75 -65.72,123.45 -65.72,203.11l0 3680.15c0,79.66 21.91,147.37 65.72,203.13 43.81,55.75 115.5,83.63 215.07,83.63l1511.49 0c75.67,0 137.41,-19.91 185.2,-59.73 47.8,-39.84 71.69,-101.58 71.69,-185.21 0,-83.64 -23.89,-145.38 -71.69,-185.2 -47.79,-39.83 -109.53,-59.74 -185.2,-59.74l-1266.55 0 0 -1392.01zm2951.28 -1.99l1625 1765.4c31.87,31.85 65.72,58.75 101.57,82.65 35.84,23.89 81.65,35.83 137.4,35.83 67.72,0 124.47,-19.91 170.28,-58.75 45.79,-38.82 68.69,-85.63 68.69,-140.39 0,-86.62 -33.85,-164.3 -101.56,-234.99l-1356.16 -1459.7 227.03 -5.97c159.31,-7.97 308.68,-34.86 448.07,-80.67 139.4,-45.79 261.87,-116.5 367.42,-212.08 105.54,-95.59 189.19,-218.06 250.92,-367.41 61.74,-149.36 92.59,-331.58 92.59,-546.65 0,-175.25 -36.84,-332.58 -110.51,-471.97 -73.7,-139.4 -170.27,-259.89 -289.75,-361.44 -119.49,-101.56 -257.9,-179.22 -415.23,-233 -157.32,-53.77 -319.61,-80.65 -486.89,-80.65l-973.81 0c-99.57,0 -171.27,27.88 -215.07,82.65 -43.81,55.75 -65.72,122.47 -65.72,202.13l0 3690.1c0,87.62 23.89,155.32 71.69,205.12 47.79,48.78 111.53,73.67 191.17,73.67 79.67,0 143.39,-24.89 191.18,-73.67 47.79,-49.8 71.69,-117.5 71.69,-205.12l0 -1605.09zm0 -1915.75l704.97 0c123.47,0 233.99,19.92 331.58,59.75 97.57,39.83 181.22,92.59 250.91,158.31 69.7,65.72 123.47,142.38 161.31,230.02 37.83,87.61 56.74,181.22 56.74,280.79 0,274.81 -62.71,473.96 -188.17,597.43 -125.47,123.45 -325.6,185.19 -600.43,185.19l-716.91 0 0 -1511.49z"/>
   <path class="fil4 str3" d="M16383.12 9030.68l0 -3828.41c0,-182.2 46.73,-328.2 139.26,-438.68 93.11,-111.14 227.46,-167.09 405.01,-167.09l2104.74 0c395.36,0 444.7,392.29 435.19,717.17 -18.07,615.66 -397.01,655.04 -435.19,655.04l-957.39 0 0 373.39 872.68 0c175.74,0 510.55,222.3 509.45,713.46 -1.22,542.18 -342.51,703.63 -509.45,703.63l-872.68 0 0 355.33 1018.89 0c264.92,0 402.91,162.11 492.14,460.58 121.03,404.79 -51.14,978.96 -626.75,978.96l-2038.6 0c-154.28,0 -282,-48.74 -384.11,-145.06 -102.12,-96.32 -153.19,-221.65 -153.19,-378.32z"/>
  </g>
 </g>
</svg>
